<?xml version="1.0" standalone="no"?>
<!DOCTYPE svg PUBLIC "-//W3C//DTD SVG 20010904//EN"
 "http://www.w3.org/TR/2001/REC-SVG-20010904/DTD/svg10.dtd">
<svg version="1.0" xmlns="http://www.w3.org/2000/svg"
 width="1280.000000pt" height="1280.000000pt" viewBox="0 0 1280.000000 1280.000000"
 preserveAspectRatio="xMidYMid meet">
<metadata>
Created by potrace 1.15, written by Peter Selinger 2001-2017
</metadata>
<g transform="translate(0.000000,1280.000000) scale(0.100000,-0.100000)"
fill="#000000" stroke="none">
<path d="M6100 12794 c-1151 -62 -2207 -399 -3152 -1005 -584 -375 -1115 -855
-1555 -1404 -744 -931 -1221 -2079 -1352 -3260 -30 -267 -35 -375 -35 -725 0
-443 15 -640 80 -1050 245 -1534 1084 -2962 2324 -3955 362 -289 832 -586
1209 -762 772 -361 1392 -529 2271 -615 166 -16 833 -16 1010 0 905 84 1622
285 2380 668 1663 837 2877 2355 3329 4162 77 306 134 646 168 997 24 252 24
847 0 1105 -132 1412 -677 2673 -1608 3715 -133 149 -439 451 -579 571 -1046
900 -2280 1419 -3655 1540 -162 14 -697 26 -835 18z m1543 -199 c1435 -289
2718 -1060 3644 -2190 737 -900 1202 -1958 1367 -3105 48 -335 60 -508 60
-900 0 -391 -12 -562 -60 -900 -130 -920 -465 -1802 -979 -2580 -828 -1253
-2083 -2178 -3515 -2590 -542 -156 -1035 -231 -1620 -246 -263 -7 -454 6 -690
47 -1160 201 -2103 1014 -2464 2124 -103 319 -148 607 -149 955 -1 513 104
962 329 1412 483 963 1435 1616 2504 1717 63 6 230 15 370 21 140 5 306 16
368 25 732 97 1397 430 1907 956 493 509 786 1118 887 1849 20 149 17 663 -5
815 -95 640 -332 1171 -738 1655 -333 397 -769 710 -1268 911 -80 32 -140 59
-133 59 7 0 90 -16 185 -35z m-993 -2004 c140 -37 216 -71 334 -149 170 -112
295 -265 378 -462 47 -110 65 -182 77 -305 29 -318 -82 -619 -311 -841 -224
-218 -504 -318 -822 -292 -429 34 -794 344 -913 773 -25 90 -28 116 -27 260 0
130 4 176 21 245 100 394 408 694 803 779 124 27 344 23 460 -8z"/>
<path d="M6244 4209 c-691 -145 -1062 -912 -746 -1544 52 -105 107 -181 195
-272 364 -376 936 -437 1377 -147 101 66 234 200 304 306 209 317 236 737 68
1073 -156 315 -447 532 -796 594 -95 17 -298 12 -402 -10z"/>
</g>
</svg>
