<?xml version="1.0" standalone="no"?>
<!DOCTYPE svg PUBLIC "-//W3C//DTD SVG 20010904//EN"
 "http://www.w3.org/TR/2001/REC-SVG-20010904/DTD/svg10.dtd">
<svg version="1.0" xmlns="http://www.w3.org/2000/svg"
 width="1280.000000pt" height="1022.000000pt" viewBox="0 0 1280.000000 1022.000000"
 preserveAspectRatio="xMidYMid meet">
<metadata>
Created by potrace 1.15, written by Peter Selinger 2001-2017
</metadata>
<g transform="translate(0.000000,1022.000000) scale(0.100000,-0.100000)"
fill="#000000" stroke="none">
<path d="M4770 10208 c-41 -5 -79 -13 -83 -17 -4 -4 23 -11 60 -14 37 -4 95
-14 128 -22 68 -18 171 -63 163 -71 -3 -3 -42 2 -86 10 -343 65 -717 34 -1092
-90 -96 -32 -497 -221 -487 -230 2 -2 68 11 148 30 236 55 360 70 574 70 156
-1 208 -5 292 -23 169 -35 305 -91 426 -173 117 -80 5 -74 -157 7 -49 25 -91
45 -93 45 -11 0 48 -72 116 -144 150 -155 314 -238 526 -267 161 -21 332 24
404 107 37 41 35 41 196 -8 203 -61 448 -202 655 -376 208 -175 486 -482 734
-812 135 -180 139 -183 86 -85 -264 490 -489 823 -705 1040 -225 226 -438 363
-719 460 l-120 41 -13 80 c-42 251 -239 400 -586 444 -96 12 -262 11 -367 -2z
m582 -288 c128 -36 177 -198 91 -300 -93 -111 -261 -84 -317 52 -41 96 10 208
111 243 47 17 67 18 115 5z"/>
<path d="M5224 9851 c-45 -28 -64 -59 -64 -108 0 -35 6 -50 33 -80 29 -31 41
-37 88 -41 66 -5 83 9 77 64 -3 29 1 43 19 62 29 31 29 53 1 80 -48 44 -105
53 -154 23z"/>
<path d="M6655 9511 c6 -5 64 -51 130 -102 478 -369 756 -672 931 -1015 93
-183 143 -358 160 -551 8 -99 1 -104 -62 -38 -75 78 -137 235 -151 380 -3 36
-9 62 -13 60 -16 -10 -33 -272 -26 -420 10 -234 52 -417 137 -590 116 -239
282 -382 457 -393 l74 -5 20 -46 c73 -168 139 -422 163 -628 55 -469 -26 -978
-242 -1528 -87 -220 -253 -563 -355 -732 -39 -66 -8 -30 85 95 317 428 531
816 659 1192 184 544 194 1078 30 1645 l-28 99 49 61 c59 73 129 215 152 308
65 268 -12 568 -223 867 -64 90 -300 340 -322 340 -5 0 12 -28 40 -62 94 -116
170 -300 170 -410 0 -38 -4 -34 -113 130 -148 222 -255 358 -402 511 -195 203
-404 356 -735 541 -226 126 -614 320 -585 291z m1800 -1809 c91 -47 139 -126
139 -227 0 -85 -22 -134 -88 -192 -162 -143 -416 -26 -416 191 0 113 61 197
175 243 42 18 143 10 190 -15z"/>
<path d="M8280 7649 c-91 -36 -129 -153 -81 -247 36 -71 84 -81 136 -29 30 30
39 33 85 33 61 -1 80 17 80 76 0 117 -119 207 -220 167z"/>
<path d="M3790 9484 c-413 -50 -855 -369 -1095 -789 -33 -57 -41 -61 101 47
103 78 265 165 379 202 76 26 236 59 244 51 2 -2 -16 -12 -40 -22 -522 -208
-1037 -684 -1374 -1268 -60 -104 -271 -520 -299 -590 l-16 -40 28 31 c15 17
90 104 167 195 446 523 821 822 1180 937 157 51 269 67 472 67 100 0 184 -3
188 -7 13 -12 -49 -110 -104 -165 -64 -64 -169 -128 -294 -180 -48 -20 -86
-37 -84 -39 5 -5 346 43 425 60 310 67 537 156 697 277 72 53 167 154 210 222
42 68 82 167 100 252 l12 60 54 -3 c304 -14 836 -258 1199 -549 284 -228 530
-526 676 -819 51 -102 74 -134 74 -103 0 34 -116 313 -205 494 -151 307 -299
525 -500 734 -356 372 -796 588 -1290 633 l-130 12 -66 57 c-36 31 -87 71
-113 88 -74 51 -223 117 -306 136 -76 17 -226 27 -290 19z m397 -380 c52 -19
125 -97 141 -152 40 -133 -34 -279 -160 -317 -64 -19 -91 -19 -154 0 -175 52
-234 283 -104 413 76 77 167 95 277 56z"/>
<path d="M3993 9009 c-56 -28 -87 -78 -86 -140 1 -64 28 -109 83 -136 52 -27
95 -29 150 -7 63 25 79 77 39 128 -18 23 -19 31 -10 58 17 49 13 75 -15 97
-35 28 -105 28 -161 0z"/>
<path d="M2340 8897 c-52 -51 -142 -125 -200 -164 -166 -114 -264 -196 -425
-357 -261 -262 -457 -528 -647 -881 -212 -394 -382 -873 -473 -1336 l-22 -116
-54 -49 c-271 -245 -426 -490 -490 -773 -29 -128 -35 -337 -15 -491 16 -117
63 -390 69 -396 1 -1 1 90 -1 204 -3 151 0 234 12 307 15 99 70 275 86 275 5
0 5 -13 0 -29 -18 -63 -33 -258 -27 -365 23 -461 257 -865 742 -1284 89 -77
373 -303 435 -346 18 -13 10 -3 -166 199 -304 347 -412 511 -487 737 -52 156
-45 163 30 33 149 -261 288 -448 478 -644 319 -329 658 -555 1139 -760 412
-176 812 -269 1414 -330 127 -13 643 -43 648 -38 3 2 -49 14 -113 26 -1556
290 -2461 917 -2717 1883 -32 120 -32 140 -2 68 95 -227 230 -384 435 -505 18
-10 14 -4 -57 94 -66 92 -116 196 -143 299 -17 62 -22 129 -30 347 -11 337
-27 449 -88 628 -11 31 -18 57 -15 57 8 0 54 -107 86 -200 38 -112 72 -248
114 -450 l34 -165 -5 275 c-4 278 -12 380 -40 525 -88 450 -327 741 -762 928
l-63 26 0 73 c0 255 77 617 203 947 123 325 287 601 616 1039 240 319 332 419
656 716 45 41 39 40 -78 -13 l-68 -30 47 64 c25 36 44 65 42 65 -1 0 -46 -42
-98 -93z m-1268 -3390 c69 -34 141 -109 176 -185 23 -49 27 -70 27 -152 0 -84
-3 -102 -28 -152 -38 -77 -107 -144 -187 -182 -58 -28 -75 -31 -155 -31 -79 0
-97 3 -150 29 -76 38 -149 110 -183 184 -23 49 -27 70 -27 152 0 82 4 103 27
152 29 63 93 137 145 169 60 38 112 49 209 46 74 -2 100 -8 146 -30z"/>
<path d="M941 5300 l-41 -30 -40 20 c-56 29 -115 27 -144 -5 -60 -64 -45 -236
27 -313 68 -73 202 -91 290 -39 89 52 131 158 107 271 -25 121 -108 161 -199
96z"/>
<path d="M10960 8643 c0 -3 20 -90 44 -192 134 -562 183 -942 173 -1331 -6
-215 -21 -351 -58 -510 -77 -337 -250 -672 -480 -935 l-52 -60 6 120 c12 268
100 479 361 869 19 28 19 28 -43 -10 -421 -260 -825 -1015 -881 -1645 -21
-245 31 -486 132 -612 l30 -39 -33 -91 c-45 -121 -171 -378 -244 -497 -138
-225 -291 -416 -495 -620 -321 -322 -619 -544 -1374 -1023 -182 -115 -381
-241 -443 -281 -61 -39 -110 -72 -109 -73 9 -10 892 426 1142 563 885 485
1492 1031 1890 1697 32 53 62 97 68 97 6 0 51 -5 99 -10 179 -21 375 26 605
145 206 107 364 236 562 461 185 212 190 221 70 123 -130 -105 -238 -172 -336
-211 -42 -16 -78 -28 -79 -26 -2 2 32 31 75 66 176 139 314 367 380 629 74
289 73 661 -4 1062 l-22 116 -7 -146 c-21 -413 -128 -739 -320 -972 -43 -52
-57 -56 -33 -10 24 47 95 259 121 363 222 877 -3 1857 -658 2868 -74 115 -87
132 -87 115z m14 -3347 c30 -15 73 -47 96 -72 97 -105 121 -239 66 -361 -141
-311 -597 -236 -632 104 -12 115 43 231 141 298 102 71 225 82 329 31z"/>
<path d="M10787 5227 c-90 -28 -161 -130 -155 -223 4 -61 34 -86 106 -87 46
-1 51 -3 68 -35 58 -107 152 -94 224 32 54 94 36 203 -44 274 -56 49 -124 62
-199 39z"/>
<path d="M6492 8405 c2 -5 37 -62 79 -125 348 -523 500 -1070 414 -1485 -18
-87 -71 -235 -85 -235 -28 0 -26 114 5 231 13 52 27 105 30 119 10 38 -85 -66
-152 -167 -91 -139 -142 -280 -163 -454 -29 -248 63 -506 205 -574 19 -9 35
-20 35 -24 0 -33 -94 -272 -155 -396 -133 -271 -284 -475 -542 -733 -89 -90
-150 -155 -135 -145 261 172 491 334 547 382 121 105 241 263 318 416 40 82
120 281 136 342 10 38 15 43 49 48 354 60 506 298 488 765 -5 144 -27 329 -59
495 l-14 70 0 -150 c1 -148 -9 -219 -40 -294 -8 -18 -16 -31 -18 -29 -3 2 -11
62 -20 134 -30 262 -79 490 -145 679 -109 311 -381 721 -700 1055 -45 47 -80
81 -78 75z m689 -2097 c88 -29 142 -104 143 -197 0 -122 -89 -211 -211 -211
-160 1 -256 164 -183 310 23 45 44 64 100 89 51 23 101 26 151 9z"/>
<path d="M7076 6270 c-88 -27 -138 -157 -85 -224 22 -27 50 -33 92 -17 19 7
34 5 61 -9 20 -10 46 -16 57 -13 53 14 76 123 41 193 -28 56 -105 88 -166 70z"/>
<path d="M4130 7834 c-14 -2 -65 -9 -115 -15 -298 -37 -639 -167 -914 -349
l-123 -82 -172 -2 c-153 -2 -180 -5 -259 -29 -49 -15 -112 -39 -140 -54 -312
-157 -515 -493 -582 -964 -28 -200 -16 -481 28 -619 17 -53 15 -56 42 114 18
118 55 243 104 351 31 67 159 270 167 263 2 -2 -10 -50 -26 -107 -116 -402
-176 -758 -187 -1097 -17 -550 103 -975 379 -1350 39 -52 72 -94 73 -92 2 2
-12 68 -31 148 -38 163 -77 376 -95 525 -17 135 -17 497 0 610 45 305 145 562
302 771 59 79 220 248 271 285 l27 20 10 -38 c40 -148 15 -296 -85 -512 -24
-51 -36 -87 -28 -80 9 7 60 67 113 134 226 281 372 550 443 815 28 103 31 130
32 265 1 127 -3 162 -22 228 -22 78 -68 178 -104 229 l-19 28 143 69 c360 174
695 251 1096 251 415 0 766 -82 1127 -264 219 -111 378 -223 620 -438 56 -50
58 -51 38 -18 -118 189 -331 421 -506 550 -305 224 -649 368 -1037 435 -90 16
-508 30 -570 19z m-1281 -784 c45 -23 98 -80 118 -129 8 -19 15 -60 15 -91 0
-252 -331 -340 -459 -123 -24 41 -28 59 -28 123 0 64 4 82 28 122 67 114 210
158 326 98z"/>
<path d="M2640 6958 c-44 -30 -80 -99 -80 -153 0 -117 146 -196 246 -134 77
47 110 168 54 196 -14 7 -37 15 -52 18 -20 4 -32 16 -42 39 -25 59 -71 71
-126 34z"/>
<path d="M9465 7244 c10 -38 35 -178 50 -274 84 -573 6 -1154 -215 -1595 -72
-144 -163 -280 -180 -270 -6 4 -10 41 -10 85 0 115 44 244 122 358 17 24 28
45 25 48 -9 10 -235 -237 -299 -327 -165 -232 -258 -480 -258 -689 0 -160 37
-269 121 -353 l58 -57 -15 -100 c-20 -134 -73 -325 -129 -462 -161 -393 -428
-772 -954 -1352 -24 -27 -22 -26 37 10 303 187 660 507 880 790 217 278 393
613 474 902 l23 82 46 0 c159 0 317 81 424 218 94 120 177 321 211 517 21 119
22 376 1 530 l-13 100 -6 -175 c-7 -180 -19 -244 -76 -403 -20 -56 -71 -152
-77 -145 -1 2 6 44 16 93 44 215 54 344 53 720 0 266 -5 403 -17 525 -45 428
-110 739 -228 1072 -43 124 -80 212 -64 152z m-47 -2431 c25 -15 60 -48 77
-71 25 -37 30 -55 33 -116 6 -108 -34 -182 -122 -229 -61 -32 -166 -31 -226 3
-170 95 -164 331 10 423 48 25 63 28 118 24 46 -3 76 -12 110 -34z"/>
<path d="M9257 4776 c-47 -17 -64 -32 -84 -70 -27 -52 -34 -89 -22 -123 12
-37 39 -48 91 -41 26 4 38 0 59 -23 61 -65 138 -13 147 98 4 42 0 65 -13 90
-34 62 -112 92 -178 69z"/>
<path d="M5376 7149 c215 -223 356 -412 445 -594 64 -133 86 -205 96 -321 5
-63 4 -76 -8 -72 -17 6 -36 78 -45 173 l-7 70 -23 -50 c-59 -128 -76 -315 -41
-459 40 -160 144 -302 241 -328 l46 -12 0 -116 c0 -131 -16 -243 -55 -385 -35
-128 -69 -213 -155 -385 -38 -77 -69 -140 -67 -140 2 0 23 27 47 61 23 33 85
117 137 186 106 142 162 245 197 365 26 92 49 270 45 362 l-3 59 50 32 c216
139 229 365 42 725 -76 146 -109 193 -72 100 23 -57 48 -215 31 -200 -3 3 -33
58 -66 123 -108 211 -238 391 -359 495 -32 28 -123 95 -202 149 -80 55 -190
130 -245 168 l-100 68 71 -74z m851 -1119 c79 -48 90 -160 23 -225 -41 -39
-123 -47 -173 -16 -64 39 -85 126 -47 189 42 68 132 92 197 52z"/>
<path d="M6097 6009 c-21 -12 -47 -61 -47 -89 0 -29 26 -76 46 -84 9 -4 27 0
40 9 13 8 38 15 57 15 18 0 38 5 45 12 27 27 7 100 -38 135 -18 15 -78 16
-103 2z"/>
<path d="M4420 7100 c14 -12 61 -52 105 -90 117 -100 188 -177 170 -184 -9 -3
-38 15 -72 45 -76 67 -187 119 -357 168 -76 23 -142 41 -145 41 -3 0 48 -27
114 -60 111 -56 307 -179 320 -200 11 -19 -58 -27 -95 -12 -97 41 -269 53
-445 33 -72 -9 -56 -17 43 -25 90 -6 302 -45 302 -56 0 -4 -19 -12 -41 -19
-70 -21 -270 -128 -361 -194 -365 -262 -623 -656 -721 -1102 -18 -86 -21 -131
-21 -315 0 -239 12 -317 74 -478 141 -366 578 -687 1120 -822 358 -90 582 -77
839 46 115 55 203 116 264 184 51 57 104 156 113 211 l6 36 -69 -23 c-214 -72
-473 -72 -673 -2 -230 81 -369 188 -356 273 4 29 2 31 -92 77 -197 96 -286
197 -248 281 5 11 4 17 -5 17 -7 0 -45 16 -85 36 -75 37 -194 146 -194 178 0
9 -14 57 -31 108 -106 316 16 709 307 988 75 71 112 98 186 135 58 28 113 48
146 52 l52 6 0 -51 c0 -122 68 -252 203 -387 104 -104 157 -134 267 -156 62
-11 100 -25 131 -46 103 -71 296 -153 358 -153 24 0 32 5 37 26 14 55 -30 302
-71 400 -12 28 -14 58 -9 128 7 107 -1 134 -79 275 -77 140 -165 229 -281 286
-86 43 -204 75 -275 75 -17 0 -37 10 -52 26 -55 60 -180 145 -334 228 -42 22
-60 29 -45 16z"/>
<path d="M8075 6052 c-212 -440 -396 -717 -614 -924 -141 -135 -325 -247 -448
-273 l-33 -7 15 43 c38 108 115 190 293 313 61 42 112 79 112 81 0 2 -25 -7
-55 -20 -322 -143 -502 -288 -614 -495 -68 -127 -84 -200 -87 -390 l-2 -165
-55 -50 c-145 -132 -366 -214 -852 -317 l-110 -23 180 -6 c223 -8 491 5 610
30 125 26 251 74 334 127 l69 45 68 -12 c99 -17 292 -7 379 21 286 91 520 319
630 615 44 119 42 119 -73 5 -97 -97 -239 -207 -251 -195 -2 3 9 20 26 38 17
17 57 68 90 112 325 432 494 964 481 1507 l-3 127 -90 -187z m-925 -1426 c119
-58 147 -220 57 -323 -129 -147 -367 -58 -367 135 0 112 65 192 170 212 47 9
86 2 140 -24z"/>
<path d="M7004 4576 c-41 -18 -74 -62 -74 -98 0 -22 8 -33 35 -49 26 -16 35
-28 35 -48 0 -68 65 -93 130 -48 52 35 73 70 73 122 0 99 -103 162 -199 121z"/>
<path d="M4755 5216 c-44 -8 -143 -30 -220 -50 -232 -60 -379 -63 -521 -12
-37 14 -70 23 -72 21 -9 -9 128 -132 174 -157 110 -59 258 -73 459 -43 167 25
394 30 505 11 203 -36 361 -120 612 -326 41 -33 39 -31 -22 45 -100 124 -257
281 -350 351 -190 143 -366 193 -565 160z"/>
<path d="M2453 5103 c-14 -171 -8 -564 11 -698 56 -391 178 -671 380 -870 89
-88 203 -169 300 -211 l62 -27 12 -91 c34 -268 259 -448 641 -511 145 -25 396
-17 496 15 39 12 74 25 78 29 4 5 -36 11 -91 14 -117 8 -230 35 -324 79 -69
31 -119 69 -65 49 41 -16 310 -67 427 -82 148 -19 461 -17 575 4 144 27 233
55 341 107 109 53 271 172 242 178 -9 2 -63 -4 -120 -12 -442 -66 -770 -30
-1060 115 -80 39 -211 123 -273 174 l-29 24 29 13 c18 7 69 12 130 12 85 -1
114 -6 190 -32 83 -29 88 -29 63 -9 -58 47 -238 153 -338 198 -311 141 -570
149 -759 22 -73 -49 -69 -49 -181 7 -96 48 -181 112 -261 198 -230 243 -362
612 -439 1232 -12 90 -23 166 -25 168 -1 2 -7 -41 -12 -95z m1209 -1693 c52
-15 105 -77 113 -134 9 -58 -24 -130 -74 -163 -101 -67 -251 13 -251 134 0 79
37 134 107 159 47 16 58 17 105 4z"/>
<path d="M3587 3342 c-10 -10 -17 -28 -17 -40 0 -12 -9 -26 -20 -32 -58 -31
-40 -97 34 -125 54 -21 88 -14 122 22 50 54 37 133 -29 173 -40 25 -69 25 -90
2z"/>
<path d="M4275 4851 c135 -140 283 -214 479 -237 32 -3 165 -1 295 6 262 15
345 8 473 -35 61 -21 151 -69 228 -123 45 -31 -72 99 -141 157 -130 109 -277
179 -438 206 -73 13 -158 15 -438 13 l-348 -3 -65 28 c-36 16 -72 31 -80 34
-8 3 8 -18 35 -46z"/>
<path d="M4630 4531 c106 -97 248 -175 389 -213 111 -31 342 -31 462 -1 86 22
236 77 253 93 11 11 -91 63 -170 86 -85 26 -237 24 -394 -5 -232 -43 -360 -31
-514 46 l-71 36 45 -42z"/>
<path d="M8397 4303 c-69 -82 -196 -236 -283 -343 -299 -370 -464 -547 -667
-714 -309 -254 -694 -448 -1122 -565 -229 -63 -646 -142 -743 -141 -26 1 -24
4 33 57 157 149 327 220 693 294 89 17 161 33 159 35 -6 6 -351 -26 -502 -47
-753 -102 -1134 -355 -1230 -814 -8 -38 -15 -84 -15 -102 l0 -31 -77 -8 c-115
-12 -659 -9 -803 5 -217 20 -370 41 -545 76 -627 126 -1108 340 -1796 800
-126 84 -229 150 -229 145 0 -14 426 -426 578 -558 245 -215 433 -355 667
-495 673 -405 1422 -558 2223 -452 l106 14 50 -45 c109 -99 255 -162 433 -189
579 -87 1323 211 1901 760 120 114 239 249 373 425 159 209 159 211 -17 38
-235 -234 -393 -355 -624 -483 -80 -44 -227 -115 -238 -115 -3 0 32 25 78 56
333 222 631 525 891 904 226 329 426 708 704 1335 125 283 135 305 131 305 -2
0 -60 -66 -129 -147z m-2815 -2113 c144 -54 240 -217 210 -357 -23 -113 -92
-202 -190 -246 -72 -32 -189 -30 -264 5 -185 87 -246 312 -129 481 79 116 241
166 373 117z"/>
<path d="M5417 2086 c-65 -24 -106 -66 -107 -108 0 -15 15 -46 35 -72 34 -45
34 -45 23 -99 -10 -48 -9 -58 6 -81 9 -15 28 -31 42 -36 65 -25 176 1 232 53
92 85 79 248 -24 320 -50 35 -146 46 -207 23z"/>
<path d="M3650 4093 c0 -14 84 -113 148 -175 138 -134 344 -241 555 -291 77
-18 123 -21 282 -22 217 0 283 13 430 85 79 39 154 90 110 75 -145 -48 -212
-60 -360 -59 -350 1 -757 129 -1082 340 -46 29 -83 51 -83 47z"/>
<path d="M7551 3878 c-159 -150 -376 -274 -566 -324 -85 -23 -122 -27 -250
-28 -82 -1 -168 3 -189 7 l-39 9 29 24 c43 35 129 65 206 71 37 3 65 9 63 13
-9 14 -192 33 -310 33 -139 -1 -239 -21 -335 -66 -72 -34 -156 -111 -183 -169
-18 -39 -33 -46 -142 -69 -83 -18 -336 -15 -470 5 -98 15 -408 78 -453 92 -47
15 35 -34 172 -102 305 -151 672 -235 836 -190 33 8 56 11 58 5 10 -26 87
-111 124 -137 81 -55 130 -67 268 -67 99 0 142 5 205 23 125 36 270 111 340
177 33 31 51 53 40 49 -169 -60 -193 -66 -276 -71 -49 -3 -89 -3 -89 0 0 3 33
16 73 27 406 117 695 293 842 514 48 72 122 223 113 231 -2 2 -32 -24 -67 -57z
m-1250 -463 c71 -37 89 -122 38 -179 -75 -86 -199 -35 -199 82 0 45 19 73 65
97 38 19 58 19 96 0z"/>
<path d="M6215 3377 c-13 -11 -16 -21 -11 -41 4 -16 2 -34 -4 -41 -29 -35 26
-79 84 -68 48 10 78 69 60 118 -8 20 -56 45 -87 45 -13 0 -31 -6 -42 -13z"/>
<path d="M315 3745 c4 -11 20 -56 35 -100 120 -346 351 -816 593 -1205 249
-401 496 -719 767 -990 364 -364 706 -572 1037 -630 l72 -13 -5 -56 c-8 -73
17 -187 57 -271 44 -89 185 -228 293 -289 160 -91 343 -151 534 -176 124 -17
462 -20 462 -5 0 6 -28 10 -62 10 -90 0 -233 17 -303 35 -75 20 -203 79 -264
122 -53 38 -47 41 24 14 130 -49 395 -99 675 -127 228 -23 724 -23 955 0 207
21 470 65 625 104 129 33 324 92 318 96 -1 2 -41 -3 -88 -10 -730 -111 -1599
90 -2055 476 -33 28 -61 54 -63 59 -5 14 47 22 97 15 114 -17 228 -69 338
-156 35 -26 65 -48 68 -48 4 0 -31 45 -76 100 -280 343 -642 561 -959 577
-164 9 -273 -24 -364 -107 l-46 -42 -67 12 c-405 74 -898 405 -1365 916 -389
426 -784 966 -1158 1584 -65 108 -89 141 -75 105z m3154 -2851 c71 -21 142
-90 160 -156 45 -158 -56 -306 -214 -316 -78 -5 -126 10 -177 56 -147 133
-100 350 91 418 48 17 77 17 140 -2z"/>
<path d="M3370 814 c-27 -11 -40 -37 -40 -80 0 -35 -6 -48 -35 -77 -40 -40
-42 -50 -16 -93 42 -68 157 -89 229 -42 70 47 92 145 48 213 -35 53 -139 97
-186 79z"/>
<path d="M12770 3678 c-62 -173 -185 -434 -276 -585 -344 -572 -847 -973
-1221 -973 l-75 0 7 33 c32 150 208 300 550 468 99 49 176 89 172 89 -14 0
-267 -77 -387 -119 -413 -143 -746 -343 -937 -563 -127 -147 -192 -298 -201
-466 l-5 -104 -86 -75 c-373 -327 -986 -544 -1821 -647 -419 -51 -690 -66
-1222 -66 -524 0 -881 17 -1388 66 -202 19 -579 63 -605 71 -13 3 -17 2 -10
-5 27 -27 337 -114 574 -161 1153 -231 2815 -185 3864 105 204 56 568 194 798
301 l105 50 43 -38 c53 -47 125 -83 211 -105 93 -24 293 -14 410 19 249 70
480 195 719 387 209 168 379 388 415 535 7 27 1 24 -61 -38 -37 -37 -90 -83
-117 -102 -65 -46 -205 -117 -294 -149 -74 -26 -220 -66 -244 -66 -7 0 39 26
102 58 63 31 138 73 165 91 433 296 674 761 785 1515 21 142 61 528 56 533 -2
2 -13 -25 -26 -59z m-1712 -1924 c70 -29 131 -105 145 -182 10 -50 -11 -128
-46 -174 -46 -60 -105 -88 -187 -88 -57 0 -73 5 -120 33 -93 55 -131 160 -98
271 15 50 89 127 138 143 52 16 125 15 168 -3z"/>
<path d="M10908 1669 c-65 -34 -73 -71 -29 -122 26 -28 29 -39 24 -74 -4 -33
-1 -45 17 -63 19 -19 29 -22 74 -16 149 17 201 197 80 277 -38 25 -117 24
-166 -2z"/>
<path d="M10471 3033 c-140 -233 -447 -548 -703 -721 -143 -97 -309 -167 -422
-179 l-59 -6 7 34 c16 82 113 170 249 225 98 40 84 42 -77 9 -309 -63 -514
-153 -647 -285 -76 -76 -115 -149 -130 -242 -9 -60 -2 -154 16 -199 13 -34
-392 -219 -713 -326 -462 -153 -943 -235 -1577 -269 -167 -9 -139 -16 132 -33
800 -50 1530 57 2098 308 77 35 144 67 150 72 17 17 37 9 86 -35 148 -133 378
-154 614 -55 201 83 374 256 421 419 6 21 1 19 -42 -19 -63 -55 -211 -128
-299 -146 -38 -8 -71 -12 -73 -10 -2 2 18 15 46 29 167 85 413 354 615 673 89
142 224 412 270 543 36 102 80 260 74 266 -2 2 -18 -22 -36 -53z m-1186 -1092
c46 -20 101 -79 121 -127 19 -45 18 -128 -2 -170 -36 -76 -150 -133 -239 -120
-54 9 -113 47 -145 94 -30 46 -40 150 -18 202 49 116 176 170 283 121z"/>
<path d="M9160 1858 c-65 -45 -65 -80 -1 -105 35 -14 39 -19 35 -42 -3 -15 1
-34 10 -46 15 -20 15 -20 51 0 58 31 78 62 72 115 -10 87 -95 127 -167 78z"/>
</g>
</svg>
